<svg width="16" height="17" viewBox="0 0 16 17" fill="none" xmlns="http://www.w3.org/2000/svg">
<path d="M14.543 8.65918C15.0442 9.30244 15.3329 10.0524 15.333 10.8545C15.333 11.4766 15.1602 12.0683 14.8486 12.6025C14.6967 12.8629 14.8711 13.7546 15.0518 14.4805C15.1537 14.8901 14.7423 15.2678 14.3438 15.1289C13.5729 14.8604 12.5805 14.5652 12.2529 14.6934C11.4777 14.9965 10.5985 15.167 9.66699 15.167C7.97345 15.167 6.4544 14.6004 5.41602 13.7041C5.9271 13.7924 6.457 13.8398 7 13.8398C10.7681 13.8397 13.899 11.6046 14.543 8.65918Z" fill="#262F56"/>
<path d="M13.3337 7.53846C13.3337 10.2866 10.4981 12.5144 7.00033 12.5144C6.04768 12.5144 5.14415 12.3492 4.33366 12.0532C3.95204 11.9138 2.63467 12.2519 1.68826 12.5291C1.28107 12.6483 0.893237 12.2419 1.02305 11.838C1.2726 11.0615 1.52942 10.0703 1.33366 9.76314C0.90706 9.09367 0.666992 8.3381 0.666992 7.53846C0.666992 4.79031 3.50252 2.5625 7.00033 2.5625C10.4981 2.5625 13.3337 4.79031 13.3337 7.53846Z" fill="#262F56"/>
</svg>
