<svg width="11" height="11" viewBox="0 0 11 11" fill="none" xmlns="http://www.w3.org/2000/svg">
<path d="M4.3623 5.9777V10.0998H1.87891C1.09683 10.0995 0.463111 9.46486 0.462891 8.68278V5.9777H4.3623ZM9.67676 8.68278C9.67654 9.46499 9.04203 10.0998 8.25977 10.0998H5.6377V5.9777H9.67676V8.68278ZM5.92969 0.280435C6.7631 -0.250452 7.86946 -0.00510907 8.40039 0.828286C8.89709 1.60831 8.71366 2.62703 8.00488 3.18961H9.42871C9.81991 3.18961 10.1377 3.50642 10.1377 3.89762V4.52555C10.1375 4.65371 10.0847 4.7694 10 4.8527V4.70231H5.6377V3.09977H4.3623V4.70231H0.0371094C0.0143611 4.64795 0.00205985 4.58816 0.00195312 4.52555V3.89762C0.00195312 3.50653 0.318909 3.18979 0.709961 3.18961H2.13379C1.42502 2.62703 1.2416 1.60831 1.73828 0.828286C2.2692 -0.00509585 3.37558 -0.250418 4.20898 0.280435C4.49042 0.459778 4.80587 0.773057 5.06934 1.11735C5.3328 0.773046 5.64825 0.459782 5.92969 0.280435ZM3.52344 1.35563C3.28396 1.20346 2.96597 1.27447 2.81348 1.51383C2.6615 1.75328 2.7324 2.07135 2.97168 2.22379C3.13823 2.32963 3.54606 2.47745 3.96387 2.52946C4.15385 2.55309 4.30743 2.54966 4.41309 2.53239C4.38415 2.42945 4.32224 2.28915 4.2207 2.12711C3.99679 1.77005 3.68968 1.46162 3.52344 1.35563ZM7.3252 1.51383C7.1727 1.27446 6.85471 1.20343 6.61523 1.35563C6.44899 1.46162 6.14188 1.77005 5.91797 2.12711C5.81635 2.28928 5.75351 2.42943 5.72461 2.53239C5.8303 2.54981 5.98422 2.55316 6.1748 2.52946C6.59259 2.47746 7.0004 2.32963 7.16699 2.22379C7.40628 2.07135 7.47719 1.75328 7.3252 1.51383Z" fill="#262F56"/>
</svg>
