<svg width="14" height="15" viewBox="0 0 14 15" fill="none" xmlns="http://www.w3.org/2000/svg">
<path d="M6.26953 8.67444V14.6119H2.05273C1.27048 14.6118 0.63673 13.9772 0.636719 13.1949V8.67444H6.26953ZM13.3643 13.1949C13.3642 13.9773 12.7297 14.6119 11.9473 14.6119H7.54395V8.67444H13.3643V13.1949ZM8.32031 1.25257C9.35828 0.591243 10.7361 0.896289 11.3975 1.93421C12.0587 2.97225 11.7528 4.35002 10.7148 5.01136C10.6855 5.03005 10.6538 5.04674 10.6221 5.06507H13.292C13.6832 5.06507 14 5.38285 14 5.77405V6.91077C14 7.10809 13.9084 7.28223 13.7676 7.39905H7.54395V4.94202H6.26953V7.39905H0.232422C0.0915192 7.28223 6.28395e-06 7.10796 0 6.91077V5.77405C0 5.38296 0.316955 5.06524 0.708008 5.06507H3.38086C3.3489 5.04664 3.31663 5.03016 3.28711 5.01136C2.2495 4.34994 1.94443 2.97209 2.60547 1.93421C3.26673 0.896548 4.64377 0.591612 5.68164 1.25257C6.11039 1.52574 6.61867 2.05744 7.00098 2.61878C7.38324 2.05743 7.89154 1.52583 8.32031 1.25257ZM4.99707 2.32776C4.55301 2.04496 3.96358 2.17563 3.68066 2.61975C3.39792 3.06389 3.52875 3.6532 3.97266 3.93616C4.24115 4.10718 4.84233 4.32019 5.44434 4.39514C5.73919 4.43183 5.99034 4.42856 6.1709 4.39319C6.36149 4.35577 6.37828 4.30367 6.3623 4.32874C6.3471 4.35291 6.38714 4.31494 6.34082 4.12757C6.29662 3.94887 6.19217 3.72035 6.03418 3.46839C5.71182 2.95433 5.26554 2.49886 4.99707 2.32776ZM10.3223 2.61975C10.0394 2.17575 9.44987 2.04509 9.00586 2.32776C8.73735 2.49892 8.29011 2.95432 7.96777 3.46839C7.80987 3.72026 7.70629 3.94893 7.66211 4.12757C7.61558 4.31578 7.6554 4.35355 7.63965 4.32874C7.62379 4.30392 7.64106 4.35582 7.83105 4.39319C8.01154 4.42863 8.26274 4.43179 8.55762 4.39514C9.15968 4.32024 9.76169 4.1072 10.0303 3.93616C10.474 3.6532 10.6049 3.06384 10.3223 2.61975Z" fill="#262F56"/>
</svg>
